<svg width="45" height="50" viewBox="0 0 45 50" fill="none" xmlns="http://www.w3.org/2000/svg">
<path d="M5 10H10V12.5C10 15.25 12.25 17.5 15 17.5H30C32.75 17.5 35 15.25 35 12.5V10H40V22.5H45V10C45 7.25 42.75 5 40 5H29.55C28.5 2.1 25.75 0 22.5 0C19.25 0 16.5 2.1 15.45 5H5C2.25 5 0 7.25 0 10V45C0 47.75 2.25 50 5 50H20V45H5V10ZM22.5 5C23.875 5 25 6.125 25 7.5C25 8.875 23.875 10 22.5 10C21.125 10 20 8.875 20 7.5C20 6.125 21.125 5 22.5 5Z" fill="#C15D00"/>
<path d="M43.5017 34.5C42.6817 33.68 41.3217 33.68 40.5017 34.5L31.0217 44L26.5017 39.5C25.6817 38.68 24.3417 38.68 23.5017 39.5C22.6817 40.32 22.6817 41.68 23.5017 42.5L29.6017 48.58C30.3817 49.36 31.6417 49.36 32.4217 48.58L43.4817 37.5C44.3217 36.68 44.3217 35.32 43.5017 34.5Z" fill="#C15D00"/>
</svg>
