<svg width="24" height="25" viewBox="0 0 24 25" fill="none" xmlns="http://www.w3.org/2000/svg">
<path d="M14.3498 2.5H9.64977C8.60977 2.5 7.75977 3.34 7.75977 4.38V5.32C7.75977 6.36 8.59977 7.2 9.63977 7.2H14.3498C15.3898 7.2 16.2298 6.36 16.2298 5.32V4.38C16.2398 3.34 15.3898 2.5 14.3498 2.5Z" fill="#356BB7"/>
<path d="M17.24 5.32047C17.24 6.91047 15.94 8.21047 14.35 8.21047H9.65004C8.06004 8.21047 6.76004 6.91047 6.76004 5.32047C6.76004 4.76047 6.16004 4.41047 5.66004 4.67047C4.25004 5.42047 3.29004 6.91047 3.29004 8.62047V18.0305C3.29004 20.4905 5.30004 22.5005 7.76004 22.5005H16.24C18.7 22.5005 20.71 20.4905 20.71 18.0305V8.62047C20.71 6.91047 19.75 5.42047 18.34 4.67047C17.84 4.41047 17.24 4.76047 17.24 5.32047ZM15.34 13.2305L11.34 17.2305C11.19 17.3805 11 17.4505 10.81 17.4505C10.62 17.4505 10.43 17.3805 10.28 17.2305L8.78004 15.7305C8.49004 15.4405 8.49004 14.9605 8.78004 14.6705C9.07004 14.3805 9.55004 14.3805 9.84004 14.6705L10.81 15.6405L14.28 12.1705C14.57 11.8805 15.05 11.8805 15.34 12.1705C15.63 12.4605 15.63 12.9405 15.34 13.2305Z" fill="#356BB7"/>
</svg>
