<svg width="50" height="50" viewBox="0 0 50 50" fill="none" xmlns="http://www.w3.org/2000/svg">
<path fill-rule="evenodd" clip-rule="evenodd" d="M25 0C18.21 0 17.36 0.0283333 14.6933 0.15C12.0317 0.271667 10.2133 0.695 8.62333 1.31333C6.95667 1.94 5.445 2.92333 4.195 4.19667C2.9237 5.44522 1.93976 6.95582 1.31167 8.62333C0.696667 10.2133 0.271667 12.0333 0.15 14.695C0.03 17.36 0 18.2083 0 25C0 31.7917 0.0283333 32.64 0.15 35.3067C0.271667 37.9683 0.695 39.7867 1.31333 41.3767C1.94 43.0433 2.92333 44.555 4.19667 45.805C5.44526 47.0763 6.95585 48.0602 8.62333 48.6883C10.2133 49.305 12.0317 49.7283 14.6933 49.85C17.36 49.9717 18.21 50 25 50C31.79 50 32.64 49.9717 35.3067 49.85C37.9683 49.7283 39.7867 49.305 41.3767 48.6867C43.0433 48.06 44.555 47.0767 45.805 45.8033C47.0763 44.5548 48.0602 43.0442 48.6883 41.3767C49.305 39.7867 49.7283 37.9683 49.85 35.3067C49.9717 32.64 50 31.79 50 25C50 18.21 49.9717 17.36 49.85 14.6933C49.7283 12.0317 49.305 10.2133 48.6867 8.62333C48.059 6.95511 47.075 5.44387 45.8033 4.195C44.5548 2.9237 43.0442 1.93976 41.3767 1.31167C39.7867 0.696667 37.9667 0.271667 35.305 0.15C32.64 0.03 31.7917 0 25 0ZM25 4.505C31.675 4.505 32.4667 4.53 35.1033 4.65C37.54 4.76167 38.8633 5.16667 39.745 5.51167C40.9117 5.96333 41.745 6.50667 42.62 7.38C43.495 8.255 44.0367 9.08833 44.4883 10.255C44.8317 11.1367 45.2383 12.46 45.35 14.8967C45.47 17.5333 45.495 18.325 45.495 25C45.495 31.675 45.47 32.4667 45.35 35.1033C45.2383 37.54 44.8333 38.8633 44.4883 39.745C44.0882 40.8309 43.4498 41.8133 42.62 42.62C41.8135 43.45 40.831 44.0884 39.745 44.4883C38.8633 44.8317 37.54 45.2383 35.1033 45.35C32.4667 45.47 31.6767 45.495 25 45.495C18.3233 45.495 17.5333 45.47 14.8967 45.35C12.46 45.2383 11.1367 44.8333 10.255 44.4883C9.16909 44.0882 8.18668 43.4498 7.38 42.62C6.55029 41.8133 5.91188 40.8309 5.51167 39.745C5.16833 38.8633 4.76167 37.54 4.65 35.1033C4.53 32.4667 4.505 31.675 4.505 25C4.505 18.325 4.53 17.5333 4.65 14.8967C4.76167 12.46 5.16667 11.1367 5.51167 10.255C5.96333 9.08833 6.50667 8.255 7.38 7.38C8.18657 6.55007 9.16901 5.91163 10.255 5.51167C11.1367 5.16833 12.46 4.76167 14.8967 4.65C17.5333 4.53 18.325 4.505 25 4.505Z" fill="white"/>
<path fill-rule="evenodd" clip-rule="evenodd" d="M25.0004 33.3392C23.9049 33.3392 22.8202 33.1234 21.8082 32.7042C20.7961 32.285 19.8765 31.6706 19.1019 30.896C18.3273 30.1214 17.7129 29.2018 17.2937 28.1898C16.8745 27.1777 16.6587 26.093 16.6587 24.9975C16.6587 23.9021 16.8745 22.8174 17.2937 21.8053C17.7129 20.7933 18.3273 19.8737 19.1019 19.0991C19.8765 18.3245 20.7961 17.7101 21.8082 17.2908C22.8202 16.8716 23.9049 16.6559 25.0004 16.6559C27.2127 16.6559 29.3345 17.5347 30.8988 19.0991C32.4632 20.6635 33.342 22.7852 33.342 24.9975C33.342 27.2099 32.4632 29.3316 30.8988 30.896C29.3345 32.4604 27.2127 33.3392 25.0004 33.3392ZM25.0004 12.1475C21.5924 12.1475 18.3239 13.5014 15.9141 15.9112C13.5042 18.3211 12.1504 21.5895 12.1504 24.9975C12.1504 28.4056 13.5042 31.674 15.9141 34.0839C18.3239 36.4937 21.5924 37.8475 25.0004 37.8475C28.4084 37.8475 31.6769 36.4937 34.0867 34.0839C36.4965 31.674 37.8504 28.4056 37.8504 24.9975C37.8504 21.5895 36.4965 18.3211 34.0867 15.9112C31.6769 13.5014 28.4084 12.1475 25.0004 12.1475ZM41.5887 11.9142C41.5887 12.7198 41.2687 13.4924 40.6991 14.062C40.1294 14.6317 39.3568 14.9517 38.5512 14.9517C37.7456 14.9517 36.973 14.6317 36.4034 14.062C35.8337 13.4924 35.5137 12.7198 35.5137 11.9142C35.5137 11.1086 35.8337 10.336 36.4034 9.76637C36.973 9.19673 37.7456 8.87671 38.5512 8.87671C39.3568 8.87671 40.1294 9.19673 40.6991 9.76637C41.2687 10.336 41.5887 11.1086 41.5887 11.9142Z" fill="white"/>
</svg>
