<svg width="42" height="50" viewBox="0 0 42 50" fill="none" xmlns="http://www.w3.org/2000/svg">
<path d="M35.6247 10.6141C33.0378 8.92743 31.1707 6.22873 30.5883 3.08277C30.4624 2.40306 30.3933 1.70353 30.3933 0.987793H22.1369L22.1237 34.0765C21.9849 37.7818 18.9353 40.7557 15.1967 40.7557C14.0347 40.7557 12.9406 40.4652 11.9772 39.9583C9.76816 38.7958 8.25636 36.4802 8.25636 33.8155C8.25636 29.9885 11.3699 26.8749 15.1967 26.8749C15.911 26.8749 16.5963 26.9928 17.2445 27.1958V18.767C16.5737 18.6756 15.8921 18.6185 15.1967 18.6185C6.81704 18.6185 0 25.4359 0 33.8155C0 38.9568 2.56871 43.5066 6.48756 46.2578C8.95597 47.9908 11.9585 49.0121 15.1967 49.0121C23.5763 49.0121 30.3933 42.1951 30.3933 33.8155V17.0367C33.6316 19.361 37.5989 20.7306 41.88 20.7306V12.4742C39.5739 12.4742 37.4261 11.7887 35.6247 10.6141Z" fill="white"/>
</svg>
