<svg width="56" height="46" viewBox="0 0 56 46" fill="none" xmlns="http://www.w3.org/2000/svg">
<path d="M50.2492 11.7803C50.2827 12.2651 50.2827 12.75 50.2827 13.2393C50.2827 28.1495 38.9319 45.3456 18.1765 45.3456V45.3366C12.0452 45.3456 6.04137 43.5893 0.879883 40.2779C1.77141 40.3852 2.66741 40.4388 3.56564 40.441C8.64669 40.4455 13.5825 38.7406 17.5799 35.6013C12.7513 35.5097 8.5171 32.3614 7.03792 27.7652C8.72936 28.0914 10.4722 28.0244 12.1324 27.5708C6.8681 26.5073 3.08078 21.882 3.08078 16.5105C3.08078 16.4613 3.08078 16.4144 3.08078 16.3675C4.64933 17.2412 6.40558 17.726 8.20204 17.7796C3.24389 14.466 1.71555 7.87004 4.70966 2.71302C10.4387 9.76258 18.8915 14.0482 27.9654 14.5018C27.056 10.5826 28.2983 6.47577 31.2299 3.72074C35.7747 -0.551454 42.9225 -0.332482 47.1947 4.21007C49.7218 3.7118 52.144 2.78452 54.3605 1.47069C53.5181 4.08271 51.7552 6.30148 49.4001 7.71139C51.6367 7.44773 53.822 6.84891 55.8799 5.93504C54.365 8.2052 52.4568 10.1827 50.2492 11.7803Z" fill="white"/>
</svg>
