<svg width="45" height="56" viewBox="0 0 45 56" fill="none" xmlns="http://www.w3.org/2000/svg">
<path d="M30.7778 14.1111H14.1111M30.7778 25.2222H14.1111M30.7778 36.3333H19.6667M3 3H41.8889V53L39.0222 50.5444C38.0154 49.6815 36.733 49.2072 35.4069 49.2072C34.0809 49.2072 32.7985 49.6815 31.7917 50.5444L28.925 53L26.0611 50.5444C25.054 49.6808 23.7711 49.206 22.4444 49.206C21.1177 49.206 19.8348 49.6808 18.8278 50.5444L15.9639 53L13.0972 50.5444C12.0903 49.6815 10.808 49.2072 9.48194 49.2072C8.15587 49.2072 6.87354 49.6815 5.86667 50.5444L3 53V3Z" stroke="#00B90B" stroke-width="5" stroke-linecap="round" stroke-linejoin="round"/>
</svg>
