<svg width="24" height="25" viewBox="0 0 24 25" fill="none" xmlns="http://www.w3.org/2000/svg">
<path d="M22 8.31001V16.69C22 19.9 19.4 22.5 16.19 22.5H7.81C4.6 22.5 2 19.9 2 16.69V8.31001C2 5.82001 3.02 4.01001 4.83 3.13001C5.49 2.81001 6.25 3.31001 6.25 4.04001V12.92C6.25 14.11 6.71 15.06 7.54 15.54C8.38 16.01 9.44 15.91 10.52 15.26L11.82 14.48C11.9 14.44 12.1 14.44 12.16 14.47L13.48 15.26C14.2 15.69 14.82 15.83 15.32 15.83C15.84 15.83 16.24 15.67 16.48 15.53C17.29 15.06 17.75 14.11 17.75 12.92V4.04001C17.75 3.31001 18.52 2.81001 19.17 3.13001C20.98 4.01001 22 5.82001 22 8.31001Z" fill="#356BB7"/>
<path d="M15.25 2.5C15.8 2.5 16.25 2.95 16.25 3.5V12.92C16.25 13.56 16.06 14.04 15.73 14.23C15.39 14.43 14.85 14.33 14.25 13.97L12.93 13.18C12.42 12.87 11.58 12.87 11.07 13.18L9.75 13.97C9.15 14.33 8.61 14.42 8.27 14.23C7.94 14.04 7.75 13.56 7.75 12.92V3.5C7.75 2.95 8.2 2.5 8.75 2.5H15.25Z" fill="#356BB7"/>
</svg>
