<svg width="25" height="25" viewBox="0 0 25 25" fill="none" xmlns="http://www.w3.org/2000/svg">
<path d="M22.75 3.25H2.75C2.34 3.25 2 2.91 2 2.5C2 2.09 2.34 1.75 2.75 1.75H22.75C23.16 1.75 23.5 2.09 23.5 2.5C23.5 2.91 23.16 3.25 22.75 3.25Z" fill="#356BB7"/>
<path d="M17.4203 22.84C17.2903 23.1 17.0203 23.25 16.7503 23.25C16.6403 23.25 16.5203 23.22 16.4203 23.17L12.7503 21.34L9.08026 23.17C8.98026 23.22 8.86026 23.25 8.75026 23.25C8.48026 23.25 8.21026 23.1 8.08026 22.84C7.89026 22.46 8.04026 22.01 8.42026 21.83L12.0003 20.04V17.5H13.5003V20.04L17.0803 21.83C17.4603 22.01 17.6103 22.46 17.4203 22.84Z" fill="#356BB7"/>
<path d="M3.75 2.5V14.6C3.75 16.5 4.75 17.5 6.65 17.5H18.85C20.75 17.5 21.75 16.5 21.75 14.6V2.5H3.75ZM17.73 9.08L14.58 11.71C14.29 11.95 13.92 12.05 13.57 11.99C13.21 11.93 12.9 11.71 12.71 11.39L11.66 9.64L8.73 12.08C8.59 12.2 8.42 12.25 8.25 12.25C8.04 12.25 7.82 12.16 7.67 11.98C7.4 11.66 7.45 11.19 7.77 10.92L10.92 8.29C11.21 8.05 11.58 7.95 11.93 8.01C12.29 8.07 12.6 8.29 12.79 8.61L13.84 10.36L16.77 7.92C17.09 7.65 17.56 7.7 17.83 8.02C18.09 8.34 18.05 8.81 17.73 9.08Z" fill="#356BB7"/>
</svg>
