<svg width="25" height="25" viewBox="0 0 25 25" fill="none" xmlns="http://www.w3.org/2000/svg">
<path d="M7.75 2.5H6.75C3.75 2.5 2.75 4.29 2.75 6.5V7.5V21.5C2.75 22.33 3.69 22.8 4.35 22.3L6.06 21.02C6.46 20.72 7.02 20.76 7.38 21.12L9.04 22.79C9.43 23.18 10.07 23.18 10.46 22.79L12.14 21.11C12.49 20.76 13.05 20.72 13.44 21.02L15.15 22.3C15.81 22.79 16.75 22.32 16.75 21.5V4.5C16.75 3.4 17.65 2.5 18.75 2.5H7.75ZM6.72 14.51C6.17 14.51 5.72 14.06 5.72 13.51C5.72 12.96 6.17 12.51 6.72 12.51C7.27 12.51 7.72 12.96 7.72 13.51C7.72 14.06 7.27 14.51 6.72 14.51ZM6.72 10.51C6.17 10.51 5.72 10.06 5.72 9.51C5.72 8.96 6.17 8.51 6.72 8.51C7.27 8.51 7.72 8.96 7.72 9.51C7.72 10.06 7.27 10.51 6.72 10.51ZM12.75 14.26H9.75C9.34 14.26 9 13.92 9 13.51C9 13.1 9.34 12.76 9.75 12.76H12.75C13.16 12.76 13.5 13.1 13.5 13.51C13.5 13.92 13.16 14.26 12.75 14.26ZM12.75 10.26H9.75C9.34 10.26 9 9.92 9 9.51C9 9.1 9.34 8.76 9.75 8.76H12.75C13.16 8.76 13.5 9.1 13.5 9.51C13.5 9.92 13.16 10.26 12.75 10.26Z" fill="#356BB7"/>
<path d="M18.76 2.5V4C19.42 4 20.05 4.27 20.51 4.72C20.99 5.21 21.25 5.84 21.25 6.5V8.92C21.25 9.66 20.92 10 20.17 10H18.25V4.51C18.25 4.23 18.48 4 18.76 4V2.5ZM18.76 2.5C17.65 2.5 16.75 3.4 16.75 4.51V11.5H20.17C21.75 11.5 22.75 10.5 22.75 8.92V6.5C22.75 5.4 22.3 4.4 21.58 3.67C20.85 2.95 19.86 2.51 18.76 2.5C18.77 2.5 18.76 2.5 18.76 2.5Z" fill="#356BB7"/>
</svg>
