<svg width="25" height="25" viewBox="0 0 25 25" fill="none" xmlns="http://www.w3.org/2000/svg">
<path d="M18.5 2.5H6.5C4.84 2.5 3.5 3.83 3.5 5.47V16.38C3.5 18.02 4.84 19.35 6.5 19.35H7.26C8.06 19.35 8.82 19.66 9.38 20.22L11.09 21.91C11.87 22.68 13.14 22.68 13.92 21.91L15.63 20.22C16.19 19.66 16.96 19.35 17.75 19.35H18.5C20.16 19.35 21.5 18.02 21.5 16.38V5.47C21.5 3.83 20.16 2.5 18.5 2.5ZM12.5 6.25C13.79 6.25 14.83 7.29 14.83 8.58C14.83 9.87 13.79 10.91 12.5 10.91C11.21 10.91 10.17 9.86 10.17 8.58C10.17 7.29 11.21 6.25 12.5 6.25ZM15.18 15.56H9.82C9.01 15.56 8.54 14.66 8.99 13.99C9.67 12.98 10.99 12.3 12.5 12.3C14.01 12.3 15.33 12.98 16.01 13.99C16.46 14.66 15.98 15.56 15.18 15.56Z" fill="#356BB7"/>
</svg>
