<svg width="25" height="25" viewBox="0 0 25 25" fill="none" xmlns="http://www.w3.org/2000/svg">
<path d="M16.53 2.5H8.97C5.19 2.5 4.25 3.51 4.25 7.54V18.8C4.25 21.46 5.71 22.09 7.48 20.19L7.49 20.18C8.31 19.31 9.56 19.38 10.27 20.33L11.28 21.68C12.09 22.75 13.4 22.75 14.21 21.68L15.22 20.33C15.94 19.37 17.19 19.3 18.01 20.18C19.79 22.08 21.24 21.45 21.24 18.79V7.54C21.25 3.51 20.31 2.5 16.53 2.5ZM15.59 10.49L15.09 11H15.08L12.05 14.03C11.92 14.16 11.65 14.3 11.46 14.32L10.11 14.52C9.62 14.59 9.28 14.24 9.35 13.76L9.54 12.4C9.57 12.21 9.7 11.95 9.83 11.81L12.87 8.78L13.37 8.27C13.7 7.94 14.07 7.7 14.47 7.7C14.81 7.7 15.18 7.86 15.59 8.27C16.49 9.17 16.2 9.88 15.59 10.49Z" fill="#356BB7"/>
</svg>
