<svg width="25" height="25" viewBox="0 0 25 25" fill="none" xmlns="http://www.w3.org/2000/svg">
<path d="M16.69 2.5H8.31C4.67 2.5 2.5 4.67 2.5 8.31V16.68C2.5 20.33 4.67 22.5 8.31 22.5H16.68C20.32 22.5 22.49 20.33 22.49 16.69V8.31C22.5 4.67 20.33 2.5 16.69 2.5ZM8.13 18.65C8.13 19.06 7.79 19.4 7.38 19.4C6.97 19.4 6.63 19.06 6.63 18.65V16.58C6.63 16.17 6.97 15.83 7.38 15.83C7.79 15.83 8.13 16.17 8.13 16.58V18.65ZM13.25 18.65C13.25 19.06 12.91 19.4 12.5 19.4C12.09 19.4 11.75 19.06 11.75 18.65V14.5C11.75 14.09 12.09 13.75 12.5 13.75C12.91 13.75 13.25 14.09 13.25 14.5V18.65ZM18.37 18.65C18.37 19.06 18.03 19.4 17.62 19.4C17.21 19.4 16.87 19.06 16.87 18.65V12.43C16.87 12.02 17.21 11.68 17.62 11.68C18.03 11.68 18.37 12.02 18.37 12.43V18.65ZM18.37 9.27C18.37 9.68 18.03 10.02 17.62 10.02C17.21 10.02 16.87 9.68 16.87 9.27V8.3C14.32 10.92 11.13 12.77 7.56 13.66C7.5 13.68 7.44 13.68 7.38 13.68C7.04 13.68 6.74 13.45 6.65 13.11C6.55 12.71 6.79 12.3 7.2 12.2C10.57 11.36 13.57 9.59 15.95 7.09H14.7C14.29 7.09 13.95 6.75 13.95 6.34C13.95 5.93 14.29 5.59 14.7 5.59H17.63C17.67 5.59 17.7 5.61 17.74 5.61C17.79 5.62 17.84 5.62 17.89 5.64C17.94 5.66 17.98 5.69 18.03 5.72C18.06 5.74 18.09 5.75 18.12 5.77C18.13 5.78 18.13 5.79 18.14 5.79C18.18 5.83 18.21 5.87 18.24 5.91C18.27 5.95 18.3 5.98 18.31 6.02C18.33 6.06 18.33 6.1 18.34 6.15C18.35 6.2 18.37 6.25 18.37 6.31C18.37 6.32 18.38 6.33 18.38 6.34V9.27H18.37Z" fill="#356BB7"/>
</svg>
