<svg width="24" height="25" viewBox="0 0 24 25" fill="none" xmlns="http://www.w3.org/2000/svg">
<path d="M22 15.5C22 19.37 18.87 22.5 15 22.5L16.05 20.75" stroke="#356BB7" stroke-width="1.5" stroke-linecap="round" stroke-linejoin="round"/>
<path d="M2 9.5C2 5.63 5.13 2.5 9 2.5L7.95 4.25" stroke="#356BB7" stroke-width="1.5" stroke-linecap="round" stroke-linejoin="round"/>
<path d="M22 4.7V4.81C22 5.09 21.78 5.31 21.5 5.31H12.5C12.22 5.31 12 5.09 12 4.81V4.7C12 2.94 12.44 2.5 14.22 2.5H19.78C21.56 2.5 22 2.94 22 4.7Z" fill="#356BB7"/>
<path d="M12.5 6.31006C12.22 6.31006 12 6.53006 12 6.81006V7.81006V8.80006C12 10.5601 12.44 11.0001 14.22 11.0001H19.78C21.56 11.0001 22 10.5601 22 8.80006V7.81006V6.81006C22 6.53006 21.78 6.31006 21.5 6.31006H12.5Z" fill="#356BB7"/>
<path d="M12 16.2V16.31C12 16.59 11.78 16.81 11.5 16.81H2.5C2.22 16.81 2 16.59 2 16.31V16.2C2 14.44 2.44 14 4.22 14H9.78C11.56 14 12 14.44 12 16.2Z" fill="#356BB7"/>
<path d="M2.5 17.8101C2.22 17.8101 2 18.0301 2 18.3101V19.3101V20.3001C2 22.0601 2.44 22.5001 4.22 22.5001H9.78C11.56 22.5001 12 22.0601 12 20.3001V19.3101V18.3101C12 18.0301 11.78 17.8101 11.5 17.8101H2.5Z" fill="#356BB7"/>
</svg>
